# xmcd
#
# Track frame offsets:
#	150
#	31887
#	38701
#	41103
#	60580
#	113376
#	135828
#	149795
#	157349
#	208842
#
# Disc length: 3142 seconds
#
# Revision: 1
# Processed by: cddbd v1.5.2PL0 Copyright (c) Steve Scherf et al.
# Submitted via: audiograbber 1.83.01
#
DISCID=8d0c440a
DTITLE=Grateful Dead - 70-11-20A The Palestra, Uni of Rochester, Rochester NY
DYEAR=1900
DGENRE=
TTITLE0=It's All Over Now
TTITLE1=Instrumental
TTITLE2="Spring Song" tuning > False Start
TTITLE3=Around and Around
TTITLE4=Jam
TTITLE5=Darling Corey
TTITLE6=Jam
TTITLE7=Tuning
TTITLE8=Jam
TTITLE9=Uncle John's Band
EXTD=
EXTT0=
EXTT1=
EXTT2=
EXTT3=
EXTT4=
EXTT5=
EXTT6=
EXTT7=
EXTT8=
EXTT9=
PLAYORDER=
